<?xml version="1.0" standalone="no"?>
<!DOCTYPE svg PUBLIC "-//W3C//DTD SVG 1.1//EN" "http://www.w3.org/Graphics/SVG/1.1/DTD/svg11.dtd" >
<svg xmlns="http://www.w3.org/2000/svg">
<metadata></metadata>
<defs>
<font id="neuzeit_grotesk_condblack" horiz-adv-x="1050" >
<font-face units-per-em="2048" ascent="1366" descent="-682" />
<missing-glyph horiz-adv-x="595" />
<glyph unicode="&#xfb01;" horiz-adv-x="1325" d="M61 745v232h156l2 61q3 121 24.5 180.5t78.5 102.5q95 70 245 70q49 0 129 -15v-246q-46 15 -69 15q-103 0 -115 -90q-2 -16 -2 -78h186v-232h-186v-745h-293v745h-156zM881 1268q0 64 47.5 111.5t111.5 47.5q67 0 114.5 -46.5t47.5 -112.5q0 -68 -47 -115t-115 -47 q-66 0 -112.5 47.5t-46.5 114.5zM895 0v1004h293v-1004h-293z" />
<glyph unicode="&#xfb02;" horiz-adv-x="1325" d="M61 745v232h156l2 61q3 121 24.5 180.5t78.5 102.5q95 70 245 70q49 0 129 -15v-246q-46 15 -69 15q-103 0 -115 -90q-2 -16 -2 -78h186v-232h-186v-745h-293v745h-156zM895 0v1366h293v-1366h-293z" />
<glyph horiz-adv-x="2048" />
<glyph horiz-adv-x="2048" />
<glyph unicode="&#xd;" horiz-adv-x="2048" />
<glyph unicode=" "  horiz-adv-x="595" />
<glyph unicode="&#x09;" horiz-adv-x="595" />
<glyph unicode="&#xa0;" horiz-adv-x="595" />
<glyph unicode="!" horiz-adv-x="757" d="M242 152q0 69 50.5 119.5t119.5 50.5q72 0 122 -49.5t50 -120.5q0 -72 -50 -122t-122 -50q-70 0 -120 50.5t-50 121.5zM258 1366h307l-30 -936h-246z" />
<glyph unicode="&#x22;" horiz-adv-x="559" d="M12 711l49 370q7 54 13 74t18 35q28 39 82 39q35 0 58.5 -22.5t23.5 -57.5q0 -36 -31 -94l-174 -344h-39zM285 711l51 370q11 84 29 109q28 39 81 39q35 0 58.5 -22.5t23.5 -57.5q0 -37 -28 -94l-176 -344h-39z" />
<glyph unicode="#" d="M49 338l37 205h115l41 231h-117l37 205h117l53 307h205l-54 -307h185l53 307h219l-55 -307h116l-36 -205h-115l-41 -231h117l-37 -205h-117l-53 -307h-205l53 307h-196l-56 -307h-204l55 307h-117zM406 543h198l41 231h-199z" />
<glyph unicode="$" d="M61 367h273q6 -127 133 -154v334q-16 6 -45 16q-180 60 -264 153.5t-84 233.5q0 122 57.5 214t163.5 139q58 29 172 40v152h96v-152q184 -7 289.5 -115.5t97.5 -281.5h-266q-3 130 -121 164v-313q107 -34 143.5 -48t69.5 -34q191 -113 191 -330q0 -178 -106 -284.5 t-298 -123.5v-188h-96v191q-187 13 -295 116.5t-111 270.5zM348 983q0 -57 23.5 -86t95.5 -63v278q-119 -24 -119 -129zM563 215q65 15 92 47.5t27 93.5q0 58 -24 89.5t-95 66.5v-297z" />
<glyph unicode="%" horiz-adv-x="1136" d="M41 -55l897 1421h158l-897 -1421h-158zM41 1081q0 110 80.5 190.5t189.5 80.5q116 0 196.5 -80t80.5 -195q0 -114 -80.5 -193t-194.5 -79t-193 80t-79 196zM215 1079q0 -41 28.5 -70.5t69.5 -29.5t71 29t30 69q0 41 -30 71t-71 30q-40 0 -69 -29.5t-29 -69.5zM549 256 q0 110 80.5 190t189.5 80q116 0 196.5 -79.5t80.5 -194.5q0 -113 -80.5 -192.5t-194.5 -79.5t-193 80t-79 196zM723 254q0 -41 28.5 -70.5t69.5 -29.5t71 29.5t30 70.5q0 40 -30 69t-71 29q-40 0 -69 -29t-29 -69z" />
<glyph unicode="&#x26;" horiz-adv-x="1423" d="M143 342q0 134 73 227t237 166q-60 82 -82.5 136.5t-22.5 119.5q0 145 106 235.5t275 90.5q160 0 259 -88.5t99 -231.5q0 -134 -92 -229q-22 -23 -49 -43t-104 -70q-2 -2 -17 -12l138 -190l143 145l174 -195l-174 -155l174 -248h-330l-55 88q-150 -115 -338 -115 t-301 101t-113 268zM438 365q0 -60 40.5 -100t103.5 -40q75 0 166 68l-164 244q-77 -40 -111.5 -80t-34.5 -92zM618 1006q0 -32 13.5 -62.5t60.5 -107.5q84 57 108.5 85t24.5 68q0 43 -30 72t-74 29q-43 0 -73 -24.5t-30 -59.5z" />
<glyph unicode="'" horiz-adv-x="559" d="M147 711l50 370q8 56 13 75t17 34q28 39 82 39q35 0 58.5 -22.5t23.5 -57.5q0 -36 -31 -94l-174 -344h-39z" />
<glyph unicode="(" horiz-adv-x="667" d="M82 553q0 508 274 829l230 -174q-199 -270 -199 -655q0 -386 199 -653l-230 -176q-274 324 -274 829z" />
<glyph unicode=")" horiz-adv-x="667" d="M82 -100q199 267 199 653q0 388 -199 655l231 174q273 -324 273 -829t-273 -829z" />
<glyph unicode="*" horiz-adv-x="923" d="M150 1085l51 175l188 -84l-14 196h172l-19 -196l193 84l51 -166l-203 -50l142 -145l-150 -100l-102 182l-109 -182l-141 100l133 145z" />
<glyph unicode="+" d="M55 549v219h363v362h219v-362h360v-219h-360v-361h-219v361h-363z" />
<glyph unicode="," horiz-adv-x="552" d="M55 -205l123 465h307l-170 -465h-260z" />
<glyph unicode="-" horiz-adv-x="763" d="M102 389v281h560v-281h-560z" />
<glyph unicode="." horiz-adv-x="573" d="M117 152q0 69 50.5 119.5t119.5 50.5q72 0 122 -49.5t50 -120.5q0 -72 -50 -122t-122 -50q-70 0 -120 50.5t-50 121.5z" />
<glyph unicode="/" horiz-adv-x="737" d="M82 0l354 1366h219l-354 -1366h-219z" />
<glyph unicode="0" d="M88 670q0 275 66 430q109 246 372 246q265 0 371 -246q36 -85 51 -186t15 -255t-15 -254.5t-51 -185.5q-51 -120 -146.5 -183t-224.5 -63q-130 0 -225.5 63t-146.5 183q-37 86 -51.5 186.5t-14.5 264.5zM403 676q0 -287 25 -367q27 -82 98 -82q49 0 74.5 37.5t36 129 t10.5 270.5q0 180 -10.5 271t-36.5 128t-76 37q-48 0 -73.5 -37.5t-36.5 -127t-11 -259.5z" />
<glyph unicode="1" d="M170 850v250q117 35 234.5 107t166.5 139h148v-1346h-309v961q-68 -44 -119.5 -68t-120.5 -43z" />
<glyph unicode="2" d="M70 0l41 109l391 632q96 158 96 244q0 51 -29.5 83t-76.5 32q-54 0 -85.5 -42.5t-31.5 -117.5v-33h-283q0 190 72 289q51 71 145 110.5t209 39.5q169 0 285 -93q112 -90 112 -249q0 -82 -27.5 -160.5t-90.5 -171.5l-273 -406h365v-266h-819z" />
<glyph unicode="3" d="M72 358v31l286 51q3 -225 129 -225q43 0 70 27q31 29 43 75.5t12 137.5q0 103 -26 151q-15 26 -40.5 41t-53.5 15q-34 0 -60 -18.5t-55 -63.5l-144 141l271 344h-369v252h803v-41l-315 -406q123 -9 188 -63q56 -46 87.5 -133t31.5 -197q0 -235 -121.5 -369.5 t-335.5 -134.5q-112 0 -188.5 32.5t-132.5 103.5q-80 103 -80 249z" />
<glyph unicode="4" d="M55 219v225l385 881h389v-860h136v-246h-136v-219h-288v219h-486zM268 465h273v608h-11z" />
<glyph unicode="5" d="M78 313l284 68v-12q0 -62 32 -104t81 -42q127 0 127 242q0 203 -127 203q-38 0 -65.5 -20.5t-38.5 -55.5h-219v725h720v-260h-483v-226q87 70 199 70q82 0 149.5 -33.5t110.5 -95.5q70 -107 70 -297q0 -134 -29.5 -225.5t-95.5 -155.5q-121 -121 -336 -121 q-169 0 -265.5 86.5t-113.5 253.5z" />
<glyph unicode="6" d="M74 438q0 125 34 224.5t138 279.5l229 393h342l-301 -461q56 15 98 15q157 0 248.5 -111.5t91.5 -302.5q0 -235 -121.5 -368.5t-336.5 -133.5q-192 0 -307 126.5t-115 338.5zM387 451q0 -120 30.5 -175t96.5 -55q65 0 96 53.5t31 167.5q0 116 -30.5 171t-94.5 55 q-63 0 -96 -55.5t-33 -161.5z" />
<glyph unicode="7" d="M100 1051v266h885l-22 -94l-502 -1223h-328l27 76l430 975h-490z" />
<glyph unicode="8" d="M84 406q0 115 50 195t155 134q-93 56 -132.5 116t-39.5 146q0 155 114 252t297 97q184 0 296 -95t112 -252q0 -87 -39.5 -147.5t-132.5 -116.5q107 -51 156 -128.5t49 -198.5q0 -199 -120 -317t-323 -118q-201 0 -321.5 118t-120.5 315zM401 422q0 -92 21 -133 q15 -29 43.5 -46.5t60.5 -17.5t60 17.5t43 46.5q22 38 22 131q0 76 -11 112t-42 62q-30 24 -70 24q-69 0 -106 -63q-21 -44 -21 -133zM418 967q0 -72 27.5 -110t80.5 -38q52 0 80.5 37.5t28.5 106.5q0 149 -109 149q-53 0 -80.5 -37.5t-27.5 -107.5z" />
<glyph unicode="9" d="M96 860q0 235 122 368.5t337 133.5q192 0 307 -126.5t115 -338.5q0 -122 -34.5 -222.5t-137.5 -281.5l-230 -393h-339l299 461q-56 -15 -99 -15q-157 0 -248.5 111.5t-91.5 302.5zM410 893q0 -116 30.5 -170.5t94.5 -54.5q63 0 96 55.5t33 161.5q0 120 -30.5 174.5 t-96.5 54.5q-65 0 -96 -53.5t-31 -167.5z" />
<glyph unicode=":" horiz-adv-x="751" d="M205 152q0 69 50.5 119.5t119.5 50.5q72 0 122 -49.5t50 -120.5q0 -72 -50 -122t-122 -50q-70 0 -120 50.5t-50 121.5zM205 834q0 69 50.5 119.5t119.5 50.5q72 0 122 -49.5t50 -120.5q0 -72 -50 -122t-122 -50q-70 0 -120 50.5t-50 121.5z" />
<glyph unicode=";" horiz-adv-x="751" d="M137 -205l123 465h307l-170 -465h-260zM248 834q0 69 50.5 119.5t119.5 50.5q72 0 122 -49.5t50 -120.5q0 -72 -50 -122t-122 -50q-70 0 -120 50.5t-50 121.5z" />
<glyph unicode="&#x3c;" horiz-adv-x="1024" d="M68 549v268l886 471v-319l-548 -287l548 -285v-319z" />
<glyph unicode="=" d="M55 385v219h942v-219h-942zM55 713v219h942v-219h-942z" />
<glyph unicode="&#x3e;" horiz-adv-x="1024" d="M70 78v319l548 285l-548 287v319l886 -471v-268z" />
<glyph unicode="?" horiz-adv-x="1044" d="M129 952q1 124 13 182t44 105q50 72 140.5 113t203.5 41q172 0 278.5 -101t106.5 -264q0 -153 -120 -309l-84 -111q-55 -69 -74 -105t-19 -73h-272q0 56 11.5 92t43.5 80l129 186q48 71 63 112.5t15 103.5q0 69 -27.5 108t-76.5 39t-77 -41t-28 -115q0 -25 2 -43h-272z M313 152q0 69 50.5 119.5t119.5 50.5q72 0 122 -49.5t50 -120.5q0 -72 -50 -122t-122 -50q-70 0 -120 50.5t-50 121.5z" />
<glyph unicode="@" horiz-adv-x="1472" d="M68 627q0 216 94.5 391.5t261.5 275t373 99.5q265 0 435.5 -159t170.5 -407q0 -145 -56.5 -268t-154 -194.5t-213.5 -71.5q-134 0 -158 100q-54 -59 -96 -80.5t-104 -21.5q-109 0 -172.5 75t-63.5 207q0 190 106 326.5t254 136.5q56 0 94.5 -22.5t67.5 -73.5l29 64h149 l-110 -476q-3 -15 -7 -31.5t-5.5 -23.5t-1.5 -8q-2 -14 7.5 -24.5t24.5 -10.5q104 0 180 118t76 281q0 97 -29.5 167.5t-93.5 127.5q-130 115 -327 115q-249 0 -412.5 -174.5t-163.5 -439.5q0 -226 142 -365t374 -139q117 0 220 36t223 119l57 -112q-134 -105 -248 -148 t-260 -43q-296 0 -479.5 181t-183.5 473zM555 563q0 -60 24.5 -94.5t67.5 -34.5q66 0 113 47.5t67 132.5l39 166q-21 111 -112 111q-82 0 -140.5 -96.5t-58.5 -231.5z" />
<glyph unicode="A" horiz-adv-x="1247" d="M35 0l399 1372h393l387 -1372h-346l-47 215h-405l-51 -215h-330zM479 461h285l-137 602z" />
<glyph unicode="B" horiz-adv-x="1333" d="M137 0v1366h449q188 0 273.5 -12.5t160.5 -50.5q158 -81 158 -271q0 -104 -57 -175.5t-177 -115.5q132 -35 200 -119t68 -210q0 -117 -56.5 -211.5t-156.5 -141.5q-73 -35 -150.5 -47t-225.5 -12h-486zM453 240h157q141 0 203 43q64 45 64 139q0 180 -240 180h-184v-362z M453 834h157q131 0 188.5 34.5t57.5 112.5q0 77 -58 111t-188 34h-157v-292z" />
<glyph unicode="C" horiz-adv-x="1157" d="M96 662q0 373 129.5 552t397.5 179q207 0 322.5 -103.5t152.5 -322.5l-310 -68q-14 130 -51 186t-110 56q-101 0 -148 -111.5t-47 -351.5q0 -438 189 -438q72 0 111 62t56 206l310 -105q-40 -211 -166.5 -320.5t-329.5 -109.5q-247 0 -375 172q-69 94 -100 216t-31 301z " />
<glyph unicode="D" horiz-adv-x="1335" d="M137 0v1366h436q186 0 281.5 -25t173.5 -94q193 -172 193 -536q0 -355 -172 -551q-75 -86 -175 -123t-258 -37h-479zM459 246h47q200 0 289.5 104t89.5 336t-80 336t-258 104h-88v-880z" />
<glyph unicode="E" horiz-adv-x="1155" d="M137 0v1366h910v-260h-588v-281h588v-245h-588v-314h588v-266h-910z" />
<glyph unicode="F" horiz-adv-x="1134" d="M137 0v1366h895v-260h-573v-287h573v-252h-573v-567h-322z" />
<glyph unicode="G" horiz-adv-x="1341" d="M117 668q0 367 140 546t429 179q202 0 324 -89.5t182 -283.5l-315 -78q-17 93 -69.5 145t-127.5 52q-117 0 -172 -118.5t-55 -369.5q0 -426 225 -426q95 0 151.5 87t59.5 239h-250v252h588v-127q0 -162 -28 -276.5t-91 -204.5q-74 -108 -190 -165t-263 -57 q-261 0 -399.5 179t-138.5 516z" />
<glyph unicode="H" horiz-adv-x="1341" d="M137 0v1366h322v-512h424v512h321v-1366h-321v602h-424v-602h-322z" />
<glyph unicode="I" horiz-adv-x="595" d="M137 0v1366h322v-1366h-322z" />
<glyph unicode="J" horiz-adv-x="851" d="M14 80l131 270h31q12 -47 42 -71.5t73 -24.5q54 0 79 40t25 126v946h322v-958q0 -116 -27.5 -190.5t-93.5 -137.5q-113 -107 -287 -107q-176 0 -295 107z" />
<glyph unicode="K" horiz-adv-x="1327" d="M137 0v1366h309v-588l441 588h362l-450 -606l495 -760h-385l-463 700v-700h-309z" />
<glyph unicode="L" horiz-adv-x="1155" d="M137 0v1366h322v-1100h579v-266h-901z" />
<glyph unicode="M" horiz-adv-x="1523" d="M137 0v1366h371l254 -813l252 813h375v-1366h-287l14 977l-231 -776h-250l-232 790l15 -991h-281z" />
<glyph unicode="N" horiz-adv-x="1329" d="M137 0v1366h316l458 -928l-6 928h287v-1366h-315l-459 938l6 -938h-287z" />
<glyph unicode="O" horiz-adv-x="1347" d="M109 684q0 203 34 330t113 221q71 82 172.5 120t253.5 38q147 0 242.5 -36.5t165.5 -119.5q79 -95 113 -223t34 -334q0 -199 -34.5 -327t-112.5 -222q-72 -85 -173.5 -121.5t-261.5 -36.5q-269 0 -399 156q-80 97 -113.5 224t-33.5 331zM444 690q0 -242 55 -353.5 t175 -111.5q117 0 172 111.5t55 347.5q0 235 -55 346t-172 111t-173.5 -110.5t-56.5 -340.5z" />
<glyph unicode="P" horiz-adv-x="1230" d="M137 0v1366h438q165 0 256 -20t166 -74q76 -56 117 -145t41 -201q0 -241 -184 -373q-80 -57 -176.5 -83t-231.5 -26h-104v-444h-322zM459 696h80q85 0 124 8t76 33t58.5 69.5t21.5 98.5t-21.5 98.5t-58.5 69.5t-76 33t-124 8h-80v-418z" />
<glyph unicode="Q" horiz-adv-x="1347" d="M109 682q0 204 33.5 331.5t111.5 221.5q69 85 168 121.5t258 36.5q151 0 248 -36.5t164 -119.5q78 -97 111.5 -223.5t33.5 -323.5q0 -199 -34 -316t-120 -220l158 -236l-254 -164l-147 240q-92 -21 -189 -21q-263 0 -395 156q-79 95 -113 222.5t-34 330.5zM444 690 q0 -242 55 -353.5t175 -111.5q117 0 172 111.5t55 347.5q0 235 -55 346t-172 111t-173.5 -110.5t-56.5 -340.5z" />
<glyph unicode="R" horiz-adv-x="1325" d="M137 0v1366h563q140 0 221.5 -21t145.5 -73q129 -101 129 -299q0 -160 -86.5 -254.5t-263.5 -128.5l391 -590h-401l-377 631v-631h-322zM459 793h114q83 0 123 4.5t76 19.5q92 35 92 139q0 105 -92 140q-36 15 -76.5 19.5t-122.5 4.5h-114v-327z" />
<glyph unicode="S" horiz-adv-x="1148" d="M96 301l310 111q6 -92 48 -139.5t117 -47.5q65 0 108.5 38.5t43.5 96.5q0 68 -70 117q-41 28 -74.5 45.5t-193.5 95.5q-149 73 -206.5 153t-57.5 212q0 189 130.5 299.5t354.5 110.5q231 0 338 -119q55 -57 88 -182l-299 -105q-12 79 -50.5 116.5t-109.5 37.5 q-57 0 -93 -32.5t-36 -84.5q0 -54 41.5 -95t135.5 -81q121 -51 167 -74t93 -55q172 -116 172 -316q0 -92 -39 -174.5t-111 -144.5q-70 -60 -154 -85.5t-208 -25.5q-242 0 -359 129q-34 35 -53 80t-33 119z" />
<glyph unicode="T" horiz-adv-x="1155" d="M61 1106v260h1033v-260h-357v-1106h-321v1106h-355z" />
<glyph unicode="U" horiz-adv-x="1325" d="M137 496v870h322v-854q0 -135 52.5 -207t150.5 -72q204 0 204 308v825h322v-844q0 -164 -32.5 -258.5t-115.5 -167.5q-138 -123 -378 -123q-242 0 -377 117q-83 70 -115.5 160t-32.5 246z" />
<glyph unicode="V" horiz-adv-x="1243" d="M55 1366h338l185 -745q31 -131 47 -275l235 1020h330l-389 -1366h-359z" />
<glyph unicode="W" horiz-adv-x="1701" d="M41 1366h321l164 -1030l158 1030h346l150 -1057l176 1057h305l-287 -1366h-344l-176 1071l-186 -1071h-342z" />
<glyph unicode="X" horiz-adv-x="1343" d="M55 0l404 721l-348 645h354l213 -510l223 510h352l-352 -645l389 -721h-370l-242 557l-262 -557h-361z" />
<glyph unicode="Y" horiz-adv-x="1247" d="M41 1366h362l183 -403q32 -70 53 -181l229 584h338l-418 -821v-545h-321v545z" />
<glyph unicode="Z" horiz-adv-x="1159" d="M41 0l35 131l542 975h-526v260h985v-66l-577 -1034h559v-266h-1018z" />
<glyph unicode="[" horiz-adv-x="675" d="M123 -260v1626h465v-231h-172v-1164h172v-231h-465z" />
<glyph unicode="\" horiz-adv-x="737" d="M82 1366h219l354 -1366h-219z" />
<glyph unicode="]" horiz-adv-x="675" d="M88 -29h170v1164h-170v231h463v-1626h-463v231z" />
<glyph unicode="^" horiz-adv-x="1024" d="M29 713l307 661h354l307 -661h-282l-203 444l-201 -444h-282z" />
<glyph unicode="_" horiz-adv-x="1024" d="M0 -113h1024v-190h-1024v190z" />
<glyph unicode="`" horiz-adv-x="1024" d="M190 1401v26h314l133 -286h-201z" />
<glyph unicode="a" horiz-adv-x="1136" d="M98 489q0 243 92.5 391t243.5 148q89 0 166.5 -60t114.5 -157v193h286v-1004h-292v190q-58 -118 -122 -166.5t-161 -48.5q-154 0 -241 136.5t-87 377.5zM412 500q0 -102 8 -151.5t31 -84.5q37 -61 104 -61q66 0 107 63q40 59 40 232q0 139 -24 204q-15 44 -49.5 70.5 t-75.5 26.5q-71 0 -113 -76q-17 -33 -22.5 -79.5t-5.5 -143.5z" />
<glyph unicode="b" horiz-adv-x="1148" d="M137 0v1366h293v-557q59 113 130 166t163 53q88 0 160.5 -54.5t109.5 -146.5q47 -120 47 -309q0 -235 -79 -379q-44 -78 -112 -121t-147 -43q-90 0 -156 50t-122 161v-186h-287zM436 504q0 -297 148 -297q143 0 143 293q0 154 -34.5 226.5t-108.5 72.5q-148 0 -148 -295z " />
<glyph unicode="c" horiz-adv-x="972" d="M96 500q0 258 110.5 394t321.5 136q108 0 192 -35.5t128 -99.5q38 -56 63 -193l-262 -71q-12 162 -112 162q-64 0 -94.5 -67t-30.5 -208q0 -164 28.5 -234.5t94.5 -70.5q47 0 72 34.5t42 123.5l262 -95q-67 -303 -393 -303q-204 0 -313 136t-109 391z" />
<glyph unicode="d" horiz-adv-x="1148" d="M109 485q0 235 79 379q44 78 111.5 121t146.5 43q88 0 152 -49.5t121 -161.5v549h293v-1366h-287v195q-106 -220 -289 -220q-89 0 -164.5 54.5t-113.5 146.5q-49 118 -49 309zM422 504q0 -152 36 -225.5t111 -73.5q74 0 109 72t35 223q0 174 -43 235q-43 62 -105 62 q-143 0 -143 -293z" />
<glyph unicode="e" d="M96 498q0 263 101 387q55 70 143.5 107.5t196.5 37.5q132 0 229 -54t141 -151q28 -62 38.5 -127.5t10.5 -179.5v-82h-559q1 -128 36.5 -187t109.5 -59q104 0 125 136l276 -56q-19 -143 -125 -220t-284 -77q-110 0 -185 27t-129 86q-66 72 -95.5 169t-29.5 243zM397 610 h273q-3 207 -138 207t-135 -207z" />
<glyph unicode="f" horiz-adv-x="757" d="M61 745v232h156l2 61q3 121 24.5 180.5t78.5 102.5q95 70 245 70q49 0 129 -15v-246q-46 15 -69 15q-103 0 -115 -90q-2 -16 -2 -78h186v-232h-186v-745h-293v745h-156z" />
<glyph unicode="g" horiz-adv-x="1132" d="M94 522q0 140 44.5 256.5t122 183t171.5 66.5q172 0 275 -217v193h288v-850q0 -139 -23 -211.5t-85 -126.5q-124 -103 -365 -103q-227 0 -385 84l195 174q69 -53 182 -53q110 0 151.5 53.5t41.5 196.5v80q-95 -207 -265 -207q-151 0 -249.5 137t-98.5 344zM410 541 q0 -132 37 -202.5t106 -70.5q141 0 141 271q0 252 -141 252q-69 0 -106 -64.5t-37 -185.5z" />
<glyph unicode="h" horiz-adv-x="1140" d="M137 0v1366h293v-555q63 112 138.5 162.5t179.5 50.5q66 0 123.5 -27.5t91.5 -74.5q36 -51 45.5 -100.5t9.5 -190.5v-631h-293v559q0 87 -9.5 127t-35.5 66q-33 30 -84 30q-43 0 -79 -22t-58 -62q-29 -53 -29 -151v-547h-293z" />
<glyph unicode="i" horiz-adv-x="567" d="M123 1268q0 64 47.5 111.5t112.5 47.5q67 0 114 -46.5t47 -112.5q0 -68 -47 -115t-114 -47q-66 0 -113 47.5t-47 114.5zM137 0v1004h293v-1004h-293z" />
<glyph unicode="j" horiz-adv-x="636" d="M35 -16q53 -15 78 -15q53 0 73.5 35.5t20.5 126.5v873h293v-906q0 -103 -17.5 -163.5t-60.5 -110.5q-89 -100 -252 -100q-64 0 -135 16v244zM193 1268q0 64 47.5 111.5t111.5 47.5q67 0 114.5 -46.5t47.5 -112.5q0 -68 -47 -115t-115 -47q-66 0 -112.5 47.5t-46.5 114.5z " />
<glyph unicode="k" horiz-adv-x="1155" d="M137 0v1366h293v-1366h-293zM434 518l301 486h336l-301 -478l344 -526h-379z" />
<glyph unicode="l" horiz-adv-x="567" d="M137 0v1366h293v-1366h-293z" />
<glyph unicode="m" horiz-adv-x="1726" d="M137 0v1004h287v-199q116 219 321 219q203 0 267 -201q62 105 136 153t173 48q67 0 126 -25.5t99 -70.5q60 -72 60 -205v-723h-293v590q0 76 -10 110q-13 37 -50.5 60.5t-81.5 23.5q-80 0 -120 -65q-20 -29 -26.5 -61.5t-6.5 -96.5v-561h-293v610q0 83 -27 119 q-36 55 -108 55q-78 0 -123 -67q-22 -32 -29.5 -67.5t-7.5 -100.5v-549h-293z" />
<glyph unicode="n" horiz-adv-x="1140" d="M137 0v1004h287v-191q71 111 147.5 161t176.5 50q63 0 119.5 -24.5t93.5 -67.5q57 -68 57 -193v-739h-293v614q0 80 -25 117q-36 49 -106 49q-164 0 -164 -256v-524h-293z" />
<glyph unicode="o" horiz-adv-x="1146" d="M96 502q0 257 122.5 392.5t354.5 135.5q236 0 358 -136t122 -400q0 -250 -125 -385.5t-355 -135.5q-232 0 -354.5 136t-122.5 393zM410 506q0 -151 39.5 -221t125.5 -70q85 0 124.5 69.5t39.5 217.5q0 153 -40 223t-126 70q-85 0 -124 -69.5t-39 -219.5z" />
<glyph unicode="p" horiz-adv-x="1148" d="M137 -272v1276h287v-195q112 219 299 219q88 0 160.5 -54.5t109.5 -146.5q47 -120 47 -307q0 -234 -79 -375q-44 -76 -111.5 -117.5t-147.5 -41.5q-88 0 -151.5 46.5t-120.5 153.5v-458h-293zM436 510q0 -147 36.5 -218t111.5 -71q70 0 106.5 72.5t36.5 210.5 q0 155 -34.5 228t-108.5 73q-148 0 -148 -295z" />
<glyph unicode="q" horiz-adv-x="1148" d="M109 481q0 130 18.5 219t60.5 164q44 78 111.5 121t146.5 43q91 0 157 -50.5t122 -160.5v187h287v-1276h-293v467q-72 -117 -134 -163t-147 -46q-86 0 -159.5 52t-116.5 144q-53 114 -53 299zM422 510q0 -291 149 -291q142 0 142 287q0 297 -148 297q-73 0 -108 -71.5 t-35 -221.5z" />
<glyph unicode="r" horiz-adv-x="770" d="M137 0v1004h287v-226q47 124 120.5 182.5t184.5 63.5v-315q-23 2 -55 2q-116 0 -180 -64q-38 -40 -51 -85t-13 -142v-420h-293z" />
<glyph unicode="s" horiz-adv-x="966" d="M96 211l256 104q24 -114 125 -114q49 0 82 24.5t33 61.5q0 27 -17 47q-14 14 -26.5 19.5t-75.5 25.5l-143 41q-101 31 -158 106t-57 179q0 147 104.5 236t276.5 89q297 0 350 -211l-240 -117q-14 60 -43.5 87.5t-81.5 27.5q-43 0 -70.5 -22t-27.5 -56q0 -45 41 -69 q8 -6 18.5 -10t57.5 -15l159 -49q117 -35 165 -95t48 -169q0 -163 -110.5 -261t-294.5 -98q-155 0 -238 53.5t-133 184.5z" />
<glyph unicode="t" horiz-adv-x="747" d="M55 745v232h162v266h293v-266h182v-232h-182v-426q0 -57 18 -77.5t66 -20.5q13 0 59 4l39 4v-229q-108 -25 -207 -25q-177 0 -235 88q-26 37 -33 95v112v475h-162z" />
<glyph unicode="u" horiz-adv-x="1126" d="M123 410v594h293v-512q0 -137 35.5 -200t111.5 -63q77 0 112.5 63.5t35.5 199.5v512h293v-594q0 -129 -35 -212t-113 -143q-59 -43 -127.5 -62.5t-165.5 -19.5t-165.5 19.5t-127.5 62.5q-78 60 -112.5 143t-34.5 212z" />
<glyph unicode="v" horiz-adv-x="1046" d="M41 1004h328l131 -488q22 -81 39 -235l153 723h314l-316 -1004h-317z" />
<glyph unicode="w" horiz-adv-x="1521" d="M41 1004h313l129 -685l121 685h326l114 -685l136 685h301l-279 -1004h-303l-139 772l-148 -772h-303z" />
<glyph unicode="x" horiz-adv-x="1155" d="M61 0l330 522l-315 482h364l80 -156q36 -71 60 -178l153 334h346l-313 -482l328 -522h-361l-71 135q-42 81 -82 223l-172 -358h-347z" />
<glyph unicode="y" horiz-adv-x="1060" d="M41 1004h336l166 -584l172 584h305l-442 -1276h-306l125 346z" />
<glyph unicode="z" horiz-adv-x="956" d="M59 0l33 115l357 653h-363v236h774v-56l-383 -704h371v-244h-789z" />
<glyph unicode="{" horiz-adv-x="675" d="M8 449v223q61 15 88 56t27 118v237q0 146 65 211q43 46 102.5 60t207.5 14q53 0 90 -2v-231q-106 -3 -139 -35.5t-33 -130.5v-170q0 -99 -25.5 -151.5t-91.5 -94.5q66 -40 91.5 -94t25.5 -152v-164q0 -103 33 -136t139 -34v-231q-39 -2 -94 -2q-153 0 -214 17t-104 71 q-53 67 -53 211v223q0 87 -26 129.5t-89 57.5z" />
<glyph unicode="|" horiz-adv-x="1024" d="M350 -342v1708h322v-1708h-322z" />
<glyph unicode="}" horiz-adv-x="675" d="M88 -27q106 1 139 34t33 136v164q0 98 25.5 152t91.5 94q-66 42 -91.5 94.5t-25.5 151.5v170q0 98 -33 130.5t-139 35.5v231q37 2 90 2q153 0 215.5 -16.5t106.5 -69.5q53 -62 53 -199v-237q0 -77 27 -118t88 -56v-223q-63 -15 -89 -57.5t-26 -129.5v-223 q0 -153 -64 -223q-44 -47 -102 -61.5t-205 -14.5q-55 0 -94 2v231z" />
<glyph unicode="~" horiz-adv-x="1366" d="M190 1255q58 146 132.5 214.5t173.5 68.5q48 0 94 -15t194 -79q61 -25 101 -25t71.5 28t69.5 97l156 -129q-47 -111 -95 -174q-89 -113 -213 -113q-37 0 -70 11t-204 80q-67 30 -113 30q-41 0 -72 -27.5t-69 -97.5z" />
<glyph unicode="&#xa1;" horiz-adv-x="757" d="M174 944q0 71 50 120.5t122 49.5q70 0 120 -50.5t50 -121.5q0 -69 -50.5 -119.5t-119.5 -50.5q-72 0 -122 50t-50 122zM190 -272l31 934h246l31 -934h-308z" />
<glyph unicode="&#xa2;" d="M92 453q0 218 140.5 355.5t363.5 137.5q25 0 45 -2l31 141h108l-35 -159q60 -19 108 -47.5t105 -79.5l-186 -203q-36 48 -82 70l-96 -437q109 0 188 105l176 -205q-92 -80 -175 -114.5t-189 -34.5q-35 0 -53 2l-37 -166h-109l39 182q-160 43 -251 164t-91 291zM389 457 q0 -124 103 -195l92 422q-88 -12 -141.5 -74t-53.5 -153z" />
<glyph unicode="&#xa3;" d="M63 606v127h156q-94 91 -94 240q0 164 120 268.5t310 104.5q114 0 202.5 -43t139.5 -123q58 -87 55 -244h-278q0 89 -28 127.5t-93 38.5q-54 0 -86.5 -34.5t-32.5 -92.5q0 -37 13 -68.5t49 -83.5l67 -90h256v-127h-211q23 -56 23 -94q0 -71 -68 -172q39 -6 105 -41 q72 -37 96 -46t49 -9q38 0 70.5 25.5t52.5 70.5h29v-293q-91 -67 -187 -67q-79 0 -237 92q-58 33 -86 44t-56 11q-83 0 -92 -127h-235q-2 166 55.5 249t198.5 120q34 61 34 112q0 30 -9 51.5t-44 73.5h-244z" />
<glyph unicode="&#xa4;" d="M96 408l86 86q-51 99 -51 188q0 94 51 190l-86 86l154 154l84 -84q90 49 188 49q100 0 195 -49l84 84l155 -154l-86 -86q50 -90 50 -190q0 -96 -50 -190l86 -84l-155 -154l-84 84q-94 -49 -195 -49q-97 0 -188 47l-84 -82zM322 684q0 -86 58.5 -146.5t143.5 -60.5 q86 0 146.5 60t60.5 145t-60.5 145t-146.5 60q-83 0 -142.5 -60t-59.5 -143z" />
<glyph unicode="&#xa5;" horiz-adv-x="1222" d="M55 1317h355l229 -516l201 516h329l-227 -447h188v-127h-253l-105 -206v-9h344v-127h-344v-401h-311v401h-344v127h344v9l-107 206h-252v127h187z" />
<glyph unicode="&#xa6;" horiz-adv-x="1024" d="M350 313h322v-655h-322v655zM350 641v725h322v-725h-322z" />
<glyph unicode="&#xa7;" horiz-adv-x="1046" d="M61 598q0 102 39.5 162.5t145.5 122.5q-50 38 -72 85.5t-22 114.5q0 138 104.5 224t273.5 86q293 0 379 -260l-262 -76q-21 108 -125 108q-43 0 -69.5 -22t-26.5 -58q0 -31 15.5 -46t76.5 -44l244 -112q117 -54 170 -131t53 -193q0 -97 -44 -169t-126 -107q59 -51 82 -96 t23 -111q0 -154 -115 -251t-297 -97q-107 0 -190.5 34t-133.5 97q-27 35 -40 71.5t-21 98.5l266 59q3 -60 37.5 -93.5t93.5 -33.5q51 0 81 25.5t30 68.5q0 60 -68 95l-327 163q-91 46 -133 115t-42 170zM330 631q0 -35 26 -64.5t84 -60.5l64 -35q68 -35 114 -35 q40 0 68.5 28t28.5 66q0 35 -26 64.5t-83 60.5l-63 35q-65 35 -117 35q-38 0 -67 -28t-29 -66z" />
<glyph unicode="&#xa8;" horiz-adv-x="1024" d="M250 1272q0 147 115 147q110 0 110 -149q0 -69 -29 -106.5t-84 -37.5q-112 0 -112 146zM551 1272q0 147 115 147q110 0 110 -149q0 -70 -28.5 -107t-83.5 -37t-84 37.5t-29 108.5z" />
<glyph unicode="&#xa9;" horiz-adv-x="1529" d="M68 690q0 125 55.5 258t148.5 228q95 99 220.5 151.5t265.5 52.5q192 0 353.5 -92.5t255 -253t93.5 -350.5q0 -143 -55 -272t-148.5 -222.5t-223.5 -148.5t-273 -55q-293 0 -488 204q-97 100 -150.5 231.5t-53.5 268.5zM211 690q0 -153 73.5 -282t200 -204t275.5 -75 q152 0 280 73.5t202.5 201.5t74.5 280q0 151 -74.5 278.5t-202.5 201t-280 73.5q-228 0 -387 -162q-74 -77 -118 -182t-44 -203zM440 670q0 223 83.5 330.5t256.5 107.5q135 0 208 -62.5t99 -199.5l-208 -45q-9 81 -30.5 113t-66.5 32q-61 0 -88.5 -64t-27.5 -204 q0 -250 112 -250q44 0 67.5 36.5t33.5 123.5l208 -66q-53 -266 -321 -266q-160 0 -243 105.5t-83 308.5z" />
<glyph unicode="&#xaa;" horiz-adv-x="716" d="M53 842q0 146 60.5 234.5t158.5 88.5q107 0 170 -104v90h195v-604h-199v92q-34 -57 -73.5 -82t-96.5 -25q-101 0 -158 82.5t-57 227.5zM264 848q0 -91 19 -129.5t63 -38.5q46 0 67 40t21 126q0 89 -21 129.5t-67 40.5q-44 0 -63 -38.5t-19 -129.5z" />
<glyph unicode="&#xab;" horiz-adv-x="1054" d="M129 520l100 293h279l-107 -293l107 -295h-279zM553 520l100 293h279l-109 -293l109 -295h-279z" />
<glyph unicode="&#xac;" horiz-adv-x="1024" d="M68 317v281h886v-598h-311v317h-575z" />
<glyph unicode="&#xad;" horiz-adv-x="763" d="M102 389v281h560v-281h-560z" />
<glyph unicode="&#xae;" horiz-adv-x="1529" d="M68 690q0 125 55.5 258t148.5 228q95 99 220.5 151.5t265.5 52.5q192 0 353.5 -92.5t255 -253t93.5 -350.5q0 -143 -55 -272t-148.5 -222.5t-223.5 -148.5t-273 -55q-293 0 -488 204q-97 100 -150.5 231.5t-53.5 268.5zM211 690q0 -153 73.5 -282t200 -204t275.5 -75 q152 0 280 73.5t202.5 201.5t74.5 280q0 151 -74.5 278.5t-202.5 201t-280 73.5q-228 0 -387 -162q-74 -77 -118 -182t-44 -203zM463 272v820h307q91 0 143 -13t93 -45q84 -60 84 -182q0 -188 -216 -229l220 -351h-242l-172 314v-314h-217zM680 754h10q100 0 138 19.5 t38 70.5t-38 70.5t-138 19.5h-10v-180z" />
<glyph unicode="&#xaf;" horiz-adv-x="1024" d="M252 1180v137h518v-137h-518z" />
<glyph unicode="&#xb0;" d="M207 1030q0 129 93.5 222.5t221.5 93.5q134 0 228 -93t94 -225q0 -133 -94 -226t-226 -93t-224.5 93.5t-92.5 227.5zM389 1028q0 -57 39 -97t96 -40t97.5 40t40.5 97q0 56 -40.5 95.5t-97.5 39.5q-56 0 -95.5 -39.5t-39.5 -95.5z" />
<glyph unicode="&#xb1;" d="M55 0v219h942v-219h-942zM55 590v219h363v321h219v-321h360v-219h-360v-320h-219v320h-363z" />
<glyph unicode="&#xb2;" horiz-adv-x="681" d="M43 528l31 74l245 373q58 91 58 137q0 28 -17 45t-43 17q-30 0 -47.5 -23.5t-17.5 -63.5v-26h-193q0 71 19 127q23 69 91 107t167 38q115 0 185.5 -57.5t70.5 -151.5q0 -92 -76 -198l-164 -228h223v-170h-532z" />
<glyph unicode="&#xb3;" horiz-adv-x="681" d="M49 754v16l193 31q2 -71 19.5 -103t55.5 -32q72 0 72 135q0 61 -16.5 89t-53.5 28q-22 0 -35.5 -10.5t-33.5 -43.5l-103 94l166 197h-225v162h520v-33l-192 -231q70 -10 108 -37q78 -63 78 -201q0 -142 -79 -223.5t-216 -81.5q-123 0 -190.5 64t-67.5 180z" />
<glyph unicode="&#xb4;" horiz-adv-x="1024" d="M387 1141l133 286h314v-26l-246 -260h-201z" />
<glyph unicode="&#xb5;" horiz-adv-x="1099" d="M123 -350v1354h293v-512q0 -137 35.5 -200t111.5 -63q77 0 112.5 63.5t35.5 199.5v512h293v-594q0 -129 -35 -212t-113 -143q-59 -43 -127 -62.5t-164 -19.5q-92 0 -172 19v-342h-270z" />
<glyph unicode="&#xb6;" horiz-adv-x="1355" d="M96 1010q0 90 33.5 163t95.5 117q60 43 134 59.5t206 16.5h656v-1626h-260v1354h-152v-1354h-260v885q-453 24 -453 385z" />
<glyph unicode="&#xb7;" horiz-adv-x="546" d="M102 412q0 69 50.5 119.5t119.5 50.5q72 0 122 -49.5t50 -120.5q0 -72 -50 -122t-122 -50q-70 0 -120 50.5t-50 121.5z" />
<glyph unicode="&#xb8;" horiz-adv-x="1024" d="M299 -322l43 70q73 -39 143 -39q34 0 57 19t23 47q0 23 -16 38t-39 15q-22 0 -66 -12l-26 26l123 164h67l-80 -117q50 9 70 9q55 0 91 -35.5t36 -89.5q0 -66 -60.5 -107t-158.5 -41q-115 0 -207 53z" />
<glyph unicode="&#xb9;" horiz-adv-x="681" d="M111 1026v162q78 22 151 63t107 82h102v-807h-209v561q-70 -43 -151 -61z" />
<glyph unicode="&#xba;" horiz-adv-x="722" d="M53 848q0 155 79 237t228 82q152 0 231 -82.5t79 -240.5q0 -151 -80.5 -232.5t-229.5 -81.5t-228 82t-79 236zM264 850q0 -87 23 -125.5t75 -38.5q97 0 97 162q0 88 -23.5 127t-75.5 39q-51 0 -73.5 -39t-22.5 -125z" />
<glyph unicode="&#xbb;" horiz-adv-x="1054" d="M123 225l106 295l-106 293h278l101 -293l-101 -295h-278zM547 225l106 295l-106 293h276l103 -293l-103 -295h-276z" />
<glyph unicode="&#xbc;" horiz-adv-x="1638" d="M111 1026v162q78 22 151 63t107 82h102v-807h-209v561q-70 -43 -151 -61zM383 0l690 1317h184l-690 -1317h-184zM993 129v141l244 525h258v-508h86v-158h-86v-129h-197v129h-305zM1145 287h153v334z" />
<glyph unicode="&#xbd;" horiz-adv-x="1638" d="M111 1026v162q78 22 151 63t107 82h102v-807h-209v561q-70 -43 -151 -61zM383 0l690 1317h184l-690 -1317h-184zM999 0l31 74l246 375q57 86 57 139q0 28 -16.5 44.5t-42.5 16.5q-31 0 -48.5 -23.5t-17.5 -64.5v-26h-192q0 74 18 127q23 69 91 107t167 38 q115 0 185.5 -57.5t70.5 -151.5q0 -97 -75 -199l-164 -229h223v-170h-533z" />
<glyph unicode="&#xbe;" horiz-adv-x="1638" d="M49 754v16l193 31q2 -71 19.5 -103t55.5 -32q72 0 72 135q0 61 -16.5 89t-53.5 28q-22 0 -35.5 -10.5t-33.5 -43.5l-103 94l166 197h-225v162h520v-33l-192 -231q70 -10 108 -37q78 -63 78 -201q0 -142 -79 -223.5t-216 -81.5q-123 0 -190.5 64t-67.5 180zM383 0 l690 1317h184l-690 -1317h-184zM995 129v141l244 525h256v-508h86v-158h-86v-129h-197v129h-303zM1145 287h153v334z" />
<glyph unicode="&#xbf;" horiz-adv-x="1044" d="M129 63q0 156 119 310l86 110q53 68 71.5 105t18.5 74h272q0 -57 -11 -93.5t-42 -79.5l-129 -186q-48 -72 -63 -112t-15 -101q0 -69 28 -108t77 -39q47 0 74.5 40.5t27.5 112.5v43h272q-3 -125 -14 -182t-43 -102q-50 -72 -141 -113t-203 -41q-172 0 -278.5 100.5 t-106.5 261.5zM389 944q0 71 50 120.5t122 49.5q70 0 120 -50.5t50 -121.5q0 -69 -50.5 -119.5t-119.5 -50.5q-72 0 -122 50t-50 122z" />
<glyph unicode="&#xc0;" horiz-adv-x="1247" d="M35 0l399 1372h393l387 -1372h-346l-47 215h-405l-51 -215h-330zM309 1749v27h314l133 -287h-201zM479 461h285l-137 602z" />
<glyph unicode="&#xc1;" horiz-adv-x="1247" d="M35 0l399 1372h393l387 -1372h-346l-47 215h-405l-51 -215h-330zM479 461h285l-137 602zM506 1489l133 287h313v-27l-245 -260h-201z" />
<glyph unicode="&#xc2;" horiz-adv-x="1247" d="M35 0l399 1372h393l387 -1372h-346l-47 215h-405l-51 -215h-330zM358 1489l123 287h301l123 -287h-182l-92 139l-90 -139h-183zM479 461h285l-137 602z" />
<glyph unicode="&#xc3;" horiz-adv-x="1247" d="M35 0l399 1372h393l387 -1372h-346l-47 215h-405l-51 -215h-330zM373 1489v33q0 213 151 213q47 0 142 -45q34 -15 47 -15q53 0 59 86h117q2 -14 2 -35q0 -231 -156 -231q-30 0 -50 6.5t-95 40.5q-24 12 -45 12q-22 0 -37 -18t-16 -47h-119zM479 461h285l-137 602z" />
<glyph unicode="&#xc4;" horiz-adv-x="1247" d="M35 0l399 1372h393l387 -1372h-346l-47 215h-405l-51 -215h-330zM369 1620q0 147 114 147q111 0 111 -149q0 -69 -29 -106t-84 -37q-112 0 -112 145zM479 461h285l-137 602zM670 1620q0 147 114 147q111 0 111 -149q0 -69 -29 -106t-84 -37q-112 0 -112 145z" />
<glyph unicode="&#xc5;" horiz-adv-x="1247" d="M35 0l399 1372h393l387 -1372h-346l-47 215h-405l-51 -215h-330zM440 1624q0 77 56.5 132.5t134.5 55.5q79 0 135.5 -56t56.5 -134q0 -80 -56.5 -136t-135.5 -56q-80 0 -135.5 56t-55.5 138zM479 461h285l-137 602zM528 1622q0 -43 30 -73.5t73 -30.5t73.5 30.5 t30.5 73.5q0 41 -30.5 71.5t-73.5 30.5q-41 0 -72 -30.5t-31 -71.5z" />
<glyph unicode="&#xc6;" horiz-adv-x="1716" d="M-2 0l467 1366h1161v-260h-532v-272h532v-252h-532v-316h532v-266h-854v219h-371l-65 -219h-338zM483 459h289v655h-80z" />
<glyph unicode="&#xc7;" horiz-adv-x="1157" d="M96 662q0 373 129.5 552t397.5 179q207 0 322.5 -103t152.5 -321l-310 -70q-14 131 -51 186.5t-110 55.5q-101 0 -148 -111.5t-47 -351.5q0 -438 189 -438q72 0 111 62t56 206l310 -105q-38 -195 -154 -307t-291 -121l-57 -86q50 9 70 9q55 0 91 -35.5t36 -89.5 q0 -66 -61 -107t-159 -41q-114 0 -206 53l43 70q73 -39 143 -39q34 0 57 19t23 47q0 23 -16 38t-39 15q-19 0 -66 -12l-27 28l97 129q-486 18 -486 689z" />
<glyph unicode="&#xc8;" horiz-adv-x="1155" d="M137 0v1366h910v-260h-588v-281h588v-245h-588v-314h588v-266h-910zM283 1749v27h313l133 -287h-201z" />
<glyph unicode="&#xc9;" horiz-adv-x="1155" d="M137 0v1366h910v-260h-588v-281h588v-245h-588v-314h588v-266h-910zM481 1489l133 287h314v-27l-246 -260h-201z" />
<glyph unicode="&#xca;" horiz-adv-x="1155" d="M137 0v1366h910v-260h-588v-281h588v-245h-588v-314h588v-266h-910zM332 1489l123 287h301l123 -287h-183l-90 139l-92 -139h-182z" />
<glyph unicode="&#xcb;" horiz-adv-x="1155" d="M137 0v1366h910v-260h-588v-281h588v-245h-588v-314h588v-266h-910zM330 1620q0 147 112 147q111 0 111 -149q0 -69 -28.5 -106t-82.5 -37q-112 0 -112 145zM629 1620q0 147 114 147q111 0 111 -149q0 -69 -29 -106t-84 -37q-112 0 -112 145z" />
<glyph unicode="&#xcc;" horiz-adv-x="595" d="M-25 1749v27h314l133 -287h-201zM135 0v1366h322v-1366h-322z" />
<glyph unicode="&#xcd;" horiz-adv-x="595" d="M137 0v1366h322v-1366h-322zM174 1489l133 287h314v-27l-246 -260h-201z" />
<glyph unicode="&#xce;" horiz-adv-x="595" d="M25 1489l122 287h302l122 -287h-182l-92 139l-90 -139h-182zM137 0v1366h322v-1366h-322z" />
<glyph unicode="&#xcf;" horiz-adv-x="595" d="M49 1620q0 147 115 147q110 0 110 -149q0 -143 -112 -143q-55 0 -84 37t-29 108zM137 0v1366h322v-1366h-322zM324 1620q0 147 112 147q111 0 111 -149q0 -69 -28.5 -106t-82.5 -37q-112 0 -112 145z" />
<glyph unicode="&#xd0;" horiz-adv-x="1335" d="M14 582v219h123v565h436q186 0 281.5 -25t173.5 -94q193 -172 193 -538q0 -353 -172 -549q-75 -86 -175 -123t-258 -37h-479v582h-123zM459 246h47q200 0 289.5 104t89.5 336t-80 336t-258 104h-88v-325h207v-219h-207v-336z" />
<glyph unicode="&#xd1;" horiz-adv-x="1329" d="M137 0v1366h316l458 -928l-6 928h287v-1366h-315l-459 938l6 -938h-287zM408 1489q0 73 2.5 99t13.5 52q39 95 135 95q46 0 141 -45q34 -15 45 -15q26 0 42.5 22.5t19.5 63.5h117v-35q0 -231 -156 -231q-29 0 -50.5 7t-94.5 40q-24 12 -45 12q-22 0 -36.5 -18t-17.5 -47 h-116z" />
<glyph unicode="&#xd2;" horiz-adv-x="1347" d="M109 684q0 203 34 330t113 221q71 82 172.5 120t253.5 38q147 0 242.5 -36.5t165.5 -119.5q79 -95 113 -223t34 -334q0 -199 -34.5 -327t-112.5 -222q-72 -85 -173.5 -121.5t-261.5 -36.5q-269 0 -399 156q-80 97 -113.5 224t-33.5 331zM352 1749v27h314l133 -287h-201z M444 690q0 -242 55 -353.5t175 -111.5q117 0 172 111.5t55 347.5q0 235 -55 346t-172 111t-173.5 -110.5t-56.5 -340.5z" />
<glyph unicode="&#xd3;" horiz-adv-x="1347" d="M109 684q0 203 34 330t113 221q71 82 172.5 120t253.5 38q147 0 242.5 -36.5t165.5 -119.5q79 -95 113 -223t34 -334q0 -199 -34.5 -327t-112.5 -222q-72 -85 -173.5 -121.5t-261.5 -36.5q-269 0 -399 156q-80 97 -113.5 224t-33.5 331zM444 690q0 -242 55 -353.5 t175 -111.5q117 0 172 111.5t55 347.5q0 235 -55 346t-172 111t-173.5 -110.5t-56.5 -340.5zM549 1489l133 287h313v-27l-245 -260h-201z" />
<glyph unicode="&#xd4;" horiz-adv-x="1347" d="M109 684q0 203 34 330t113 221q71 82 172.5 120t253.5 38q147 0 242.5 -36.5t165.5 -119.5q79 -95 113 -223t34 -334q0 -199 -34.5 -327t-112.5 -222q-72 -85 -173.5 -121.5t-261.5 -36.5q-269 0 -399 156q-80 97 -113.5 224t-33.5 331zM399 1489l123 287h301l123 -287 h-182l-90 139l-92 -139h-183zM444 690q0 -242 55 -353.5t175 -111.5q117 0 172 111.5t55 347.5q0 235 -55 346t-172 111t-173.5 -110.5t-56.5 -340.5z" />
<glyph unicode="&#xd5;" horiz-adv-x="1347" d="M109 684q0 203 34 330t113 221q71 82 172.5 120t253.5 38q147 0 242.5 -36.5t165.5 -119.5q79 -95 113 -223t34 -334q0 -199 -34.5 -327t-112.5 -222q-72 -85 -173.5 -121.5t-261.5 -36.5q-269 0 -399 156q-80 97 -113.5 224t-33.5 331zM416 1489q0 73 2.5 99t13.5 52 q39 95 135 95q47 0 142 -45q34 -15 45 -15q55 0 61 86h117v-35q0 -231 -156 -231q-29 0 -50.5 7t-94.5 40q-24 12 -45 12q-22 0 -36.5 -18t-17.5 -47h-116zM444 690q0 -242 55 -353.5t175 -111.5q117 0 172 111.5t55 347.5q0 235 -55 346t-172 111t-173.5 -110.5 t-56.5 -340.5z" />
<glyph unicode="&#xd6;" horiz-adv-x="1347" d="M109 684q0 203 34 330t113 221q71 82 172.5 120t253.5 38q147 0 242.5 -36.5t165.5 -119.5q79 -95 113 -223t34 -334q0 -199 -34.5 -327t-112.5 -222q-72 -85 -173.5 -121.5t-261.5 -36.5q-269 0 -399 156q-80 97 -113.5 224t-33.5 331zM410 1620q0 147 114 147 q111 0 111 -149q0 -69 -29 -106t-84 -37q-112 0 -112 145zM444 690q0 -242 55 -353.5t175 -111.5q117 0 172 111.5t55 347.5q0 235 -55 346t-172 111t-173.5 -110.5t-56.5 -340.5zM711 1620q0 147 114 147q111 0 111 -149q0 -69 -29 -106t-84 -37q-112 0 -112 145z" />
<glyph unicode="&#xd7;" d="M86 375l285 284l-285 285l154 154l284 -285l287 285l154 -154l-285 -285l285 -284l-154 -156l-287 285l-284 -285z" />
<glyph unicode="&#xd8;" horiz-adv-x="1347" d="M80 20l133 168q-55 90 -78.5 202.5t-23.5 285.5q0 209 33.5 336t113.5 223q70 83 172 120.5t256 37.5q131 0 220.5 -29t160.5 -94l115 145l88 -65l-135 -170q57 -88 80.5 -201.5t23.5 -288.5q0 -209 -33.5 -336t-113.5 -223q-70 -83 -172 -120.5t-256 -37.5 q-133 0 -222.5 29.5t-160.5 95.5l-117 -147zM446 686q0 -60 11 -188l401 508q-52 135 -182 135q-117 0 -173.5 -111.5t-56.5 -343.5zM489 362q55 -137 185 -137q118 0 173.5 110.5t55.5 344.5q0 79 -10 192z" />
<glyph unicode="&#xd9;" horiz-adv-x="1325" d="M137 496v870h322v-854q0 -135 52.5 -207t150.5 -72q204 0 204 308v825h322v-844q0 -164 -32.5 -258.5t-115.5 -167.5q-138 -123 -378 -123q-242 0 -377 117q-83 70 -115.5 160t-32.5 246zM342 1749v27h313l133 -287h-200z" />
<glyph unicode="&#xda;" horiz-adv-x="1325" d="M137 496v870h322v-854q0 -135 52.5 -207t150.5 -72q204 0 204 308v825h322v-844q0 -164 -32.5 -258.5t-115.5 -167.5q-138 -123 -378 -123q-242 0 -377 117q-83 70 -115.5 160t-32.5 246zM539 1489l133 287h313v-27l-246 -260h-200z" />
<glyph unicode="&#xdb;" horiz-adv-x="1325" d="M137 496v870h322v-854q0 -135 52.5 -207t150.5 -72q204 0 204 308v825h322v-844q0 -164 -32.5 -258.5t-115.5 -167.5q-138 -123 -378 -123q-242 0 -377 117q-83 70 -115.5 160t-32.5 246zM389 1489l123 287h301l123 -287h-182l-90 139l-93 -139h-182z" />
<glyph unicode="&#xdc;" horiz-adv-x="1325" d="M137 496v870h322v-854q0 -135 52.5 -207t150.5 -72q204 0 204 308v825h322v-844q0 -164 -32.5 -258.5t-115.5 -167.5q-138 -123 -378 -123q-242 0 -377 117q-83 70 -115.5 160t-32.5 246zM399 1620q0 147 115 147q111 0 111 -149q0 -69 -29 -106t-84 -37t-84 37t-29 108z M700 1620q0 147 115 147q111 0 111 -149q0 -69 -29 -106t-84 -37t-84 37t-29 108z" />
<glyph unicode="&#xdd;" horiz-adv-x="1247" d="M41 1366h362l183 -403q32 -70 53 -181l229 584h338l-418 -821v-545h-321v545zM500 1489l133 287h313v-27l-246 -260h-200z" />
<glyph unicode="&#xde;" horiz-adv-x="1230" d="M137 0v1366h322v-229h116q164 0 255.5 -20.5t166.5 -74.5q76 -56 117 -145t41 -201q0 -240 -184 -372q-80 -57 -176.5 -83t-231.5 -26h-104v-215h-322zM459 467h80q85 0 124 8t76 33t58.5 69.5t21.5 98.5t-21.5 98.5t-58.5 69.5t-76 33t-124 8h-80v-418z" />
<glyph unicode="&#xdf;" horiz-adv-x="1136" d="M137 0v969q0 200 76 295q105 129 358 129q183 0 289.5 -89.5t106.5 -244.5q0 -86 -32.5 -145t-109.5 -115q197 -90 197 -353q0 -204 -96 -333t-248 -129q-50 0 -121 14l-20 246q30 -15 55 -15q66 0 93.5 52t27.5 174t-34 169.5t-122 47.5h-20v223h20q63 0 92 32t29 101 q0 65 -31 101t-88 36q-66 0 -97.5 -45t-31.5 -143v-977h-293z" />
<glyph unicode="&#xe0;" horiz-adv-x="1136" d="M98 489q0 243 92.5 391t243.5 148q89 0 166.5 -60t114.5 -157v193h286v-1004h-292v190q-58 -118 -122 -166.5t-161 -48.5q-154 0 -241 136.5t-87 377.5zM248 1401v26h313l133 -286h-200zM412 500q0 -102 8 -151.5t31 -84.5q37 -61 104 -61q66 0 107 63q40 59 40 232 q0 139 -24 204q-15 44 -49.5 70.5t-75.5 26.5q-71 0 -113 -76q-17 -33 -22.5 -79.5t-5.5 -143.5z" />
<glyph unicode="&#xe1;" horiz-adv-x="1136" d="M98 489q0 243 92.5 391t243.5 148q89 0 166.5 -60t114.5 -157v193h286v-1004h-292v190q-58 -118 -122 -166.5t-161 -48.5q-154 0 -241 136.5t-87 377.5zM412 500q0 -102 8 -151.5t31 -84.5q37 -61 104 -61q66 0 107 63q40 59 40 232q0 139 -24 204q-15 44 -49.5 70.5 t-75.5 26.5q-71 0 -113 -76q-17 -33 -22.5 -79.5t-5.5 -143.5zM444 1141l134 286h313v-26l-246 -260h-201z" />
<glyph unicode="&#xe2;" horiz-adv-x="1136" d="M98 489q0 243 92.5 391t243.5 148q89 0 166.5 -60t114.5 -157v193h286v-1004h-292v190q-58 -118 -122 -166.5t-161 -48.5q-154 0 -241 136.5t-87 377.5zM297 1141l121 286h301l123 -286h-183l-90 139l-90 -139h-182zM412 500q0 -102 8 -151.5t31 -84.5q37 -61 104 -61 q66 0 107 63q40 59 40 232q0 139 -24 204q-15 44 -49.5 70.5t-75.5 26.5q-71 0 -113 -76q-17 -33 -22.5 -79.5t-5.5 -143.5z" />
<glyph unicode="&#xe3;" horiz-adv-x="1136" d="M98 489q0 243 92.5 391t243.5 148q89 0 166.5 -60t114.5 -157v193h286v-1004h-292v190q-58 -118 -122 -166.5t-161 -48.5q-154 0 -241 136.5t-87 377.5zM311 1141q0 69 3 98t14 55q39 95 135 95q43 0 141 -46q31 -14 47 -14q25 0 41 22t19 62h116q0 -105 -14 -151 q-35 -115 -141 -115q-30 0 -51 7t-95 42q-24 12 -45 12q-22 0 -36 -18t-17 -49h-117zM412 500q0 -102 8 -151.5t31 -84.5q37 -61 104 -61q66 0 107 63q40 59 40 232q0 139 -24 204q-15 44 -49.5 70.5t-75.5 26.5q-71 0 -113 -76q-17 -33 -22.5 -79.5t-5.5 -143.5z" />
<glyph unicode="&#xe4;" horiz-adv-x="1136" d="M98 489q0 243 92.5 391t243.5 148q89 0 166.5 -60t114.5 -157v193h286v-1004h-292v190q-58 -118 -122 -166.5t-161 -48.5q-154 0 -241 136.5t-87 377.5zM307 1272q0 147 113 147q110 0 110 -149q0 -69 -28 -106.5t-82 -37.5q-55 0 -84 37.5t-29 108.5zM412 500 q0 -102 8 -151.5t31 -84.5q37 -61 104 -61q66 0 107 63q40 59 40 232q0 139 -24 204q-15 44 -49.5 70.5t-75.5 26.5q-71 0 -113 -76q-17 -33 -22.5 -79.5t-5.5 -143.5zM606 1272q0 147 115 147q110 0 110 -149q0 -70 -28.5 -107t-83.5 -37t-84 37.5t-29 108.5z" />
<glyph unicode="&#xe5;" horiz-adv-x="1136" d="M98 489q0 243 92.5 391t243.5 148q89 0 166.5 -60t114.5 -157v193h286v-1004h-292v190q-58 -118 -122 -166.5t-161 -48.5q-154 0 -241 136.5t-87 377.5zM379 1276q0 76 55.5 132t132.5 56q80 0 136.5 -55.5t56.5 -134.5t-56.5 -135t-136.5 -56q-78 0 -133 56.5t-55 136.5 zM412 500q0 -102 8 -151.5t31 -84.5q37 -61 104 -61q66 0 107 63q40 59 40 232q0 139 -24 204q-15 44 -49.5 70.5t-75.5 26.5q-71 0 -113 -76q-17 -33 -22.5 -79.5t-5.5 -143.5zM467 1276q0 -43 30 -74t72 -31q43 0 73 30t30 73t-30 72.5t-73 29.5q-41 0 -71.5 -30 t-30.5 -70z" />
<glyph unicode="&#xe6;" horiz-adv-x="1548" d="M68 289q0 85 37 153.5t106 108.5q106 63 305 63h100l2 35q0 82 -34 126t-97 44q-88 0 -125 -117l-270 76q33 90 76 142q45 52 122.5 81t168.5 29q182 0 301 -96q116 96 278 96q129 0 226 -54t141 -151q28 -62 38.5 -127t10.5 -180q0 -45 -2 -82h-557q2 -129 36 -187.5 t107 -58.5q107 0 125 136l277 -56q-17 -143 -123.5 -220t-286.5 -77q-114 0 -183 29t-130 102q-82 -74 -149 -102.5t-162 -28.5q-153 0 -245.5 86.5t-92.5 229.5zM358 303q0 -51 32 -82t83 -31q70 0 109 50t39 141q0 3 -1 11.5t-2 23t-2 22.5h-36q-108 0 -165 -34.5 t-57 -100.5zM895 610h270q0 207 -135 207t-135 -207z" />
<glyph unicode="&#xe7;" horiz-adv-x="972" d="M96 500q0 258 110.5 394t321.5 136q108 0 192 -35.5t128 -99.5q39 -57 63 -193l-262 -71q-12 162 -112 162q-64 0 -94.5 -67t-30.5 -208q0 -164 28.5 -234.5t94.5 -70.5q47 0 72 34.5t42 123.5l262 -92q-32 -147 -116.5 -220.5t-233.5 -83.5l-57 -86q49 9 69 9 q55 0 91 -35.5t36 -89.5q0 -66 -60.5 -107t-158.5 -41q-115 0 -207 53l43 70q73 -39 144 -39q34 0 57 19t23 47q0 23 -16 38t-40 15q-18 0 -65 -12l-27 28l96 129q-194 14 -293.5 147t-99.5 380z" />
<glyph unicode="&#xe8;" d="M96 498q0 263 101 387q55 70 143.5 107.5t196.5 37.5q132 0 229 -54t141 -151q28 -62 38.5 -127.5t10.5 -179.5v-82h-559q1 -128 36.5 -187t109.5 -59q104 0 125 136l276 -56q-19 -143 -125 -220t-284 -77q-110 0 -185 27t-129 86q-66 72 -95.5 169t-29.5 243zM205 1401 v26h313l133 -286h-200zM397 610h273q-3 207 -138 207t-135 -207z" />
<glyph unicode="&#xe9;" d="M96 498q0 263 101 387q55 70 143.5 107.5t196.5 37.5q132 0 229 -54t141 -151q28 -62 38.5 -127.5t10.5 -179.5v-82h-559q1 -128 36.5 -187t109.5 -59q104 0 125 136l276 -56q-19 -143 -125 -220t-284 -77q-110 0 -185 27t-129 86q-66 72 -95.5 169t-29.5 243zM397 610 h273q-3 207 -138 207t-135 -207zM401 1141l134 286h313v-26l-246 -260h-201z" />
<glyph unicode="&#xea;" d="M96 498q0 263 101 387q55 70 143.5 107.5t196.5 37.5q132 0 229 -54t141 -151q28 -62 38.5 -127.5t10.5 -179.5v-82h-559q1 -128 36.5 -187t109.5 -59q104 0 125 136l276 -56q-19 -143 -125 -220t-284 -77q-110 0 -185 27t-129 86q-66 72 -95.5 169t-29.5 243zM254 1141 l121 286h301l123 -286h-183l-90 139l-92 -139h-180zM397 610h273q-3 207 -138 207t-135 -207z" />
<glyph unicode="&#xeb;" d="M96 498q0 263 101 387q55 70 143.5 107.5t196.5 37.5q132 0 229 -54t141 -151q28 -62 38.5 -127.5t10.5 -179.5v-82h-559q1 -128 36.5 -187t109.5 -59q104 0 125 136l276 -56q-19 -143 -125 -220t-284 -77q-110 0 -185 27t-129 86q-66 72 -95.5 169t-29.5 243zM262 1272 q0 147 115 147q110 0 110 -149q0 -70 -28.5 -107t-83.5 -37t-84 37.5t-29 108.5zM397 610h273q-3 207 -138 207t-135 -207zM563 1272q0 147 115 147q110 0 110 -149q0 -70 -28.5 -107t-83.5 -37t-84 37.5t-29 108.5z" />
<glyph unicode="&#xec;" horiz-adv-x="567" d="M-39 1401v26h313l134 -286h-201zM135 0v1004h293v-1004h-293z" />
<glyph unicode="&#xed;" horiz-adv-x="567" d="M137 0v1004h293v-1004h-293zM160 1141l133 286h313v-26l-246 -260h-200z" />
<glyph unicode="&#xee;" horiz-adv-x="567" d="M10 1141l123 286h301l123 -286h-182l-92 139l-90 -139h-183zM137 0v1004h293v-1004h-293z" />
<glyph unicode="&#xef;" horiz-adv-x="567" d="M35 1272q0 147 115 147q110 0 110 -149q0 -69 -29 -106.5t-84 -37.5q-112 0 -112 146zM137 0v1004h293v-1004h-293zM309 1272q0 147 113 147q110 0 110 -149q0 -69 -28 -106.5t-82 -37.5q-55 0 -84 37.5t-29 108.5z" />
<glyph unicode="&#xf0;" horiz-adv-x="1146" d="M96 461q0 127 37.5 226.5t108.5 158.5q60 51 151 80t176 24q9 0 17 -2l-62 94l-112 -53l-90 154l104 49l-113 174h340l31 -51l109 51l88 -154l-109 -51l111 -188q108 -187 139 -279.5t31 -228.5q0 -239 -123 -365.5t-355 -126.5q-233 0 -356 125.5t-123 362.5zM410 465 q0 -129 39.5 -189.5t125.5 -60.5q85 0 124.5 60t39.5 186q0 134 -39 194t-127 60q-85 0 -124 -60.5t-39 -189.5z" />
<glyph unicode="&#xf1;" horiz-adv-x="1140" d="M137 0v1004h287v-191q71 111 147.5 161t176.5 50q63 0 119.5 -24.5t93.5 -67.5q57 -68 57 -193v-739h-293v614q0 80 -25 117q-36 49 -106 49q-164 0 -164 -256v-524h-293zM313 1141q0 72 3 99t14 54q39 95 135 95q43 0 141 -46q31 -14 45 -14q26 0 42.5 22t19.5 62h116 v-35q0 -231 -155 -231q-30 0 -51 7t-95 42q-24 12 -45 12q-22 0 -36 -18t-17 -49h-117z" />
<glyph unicode="&#xf2;" horiz-adv-x="1146" d="M96 502q0 257 122.5 392.5t354.5 135.5q236 0 358 -136t122 -400q0 -250 -125 -385.5t-355 -135.5q-232 0 -354.5 136t-122.5 393zM252 1401v26h313l133 -286h-200zM410 506q0 -151 39.5 -221t125.5 -70q85 0 124.5 69.5t39.5 217.5q0 153 -40 223t-126 70 q-85 0 -124 -69.5t-39 -219.5z" />
<glyph unicode="&#xf3;" horiz-adv-x="1146" d="M96 502q0 257 122.5 392.5t354.5 135.5q236 0 358 -136t122 -400q0 -250 -125 -385.5t-355 -135.5q-232 0 -354.5 136t-122.5 393zM410 506q0 -151 39.5 -221t125.5 -70q85 0 124.5 69.5t39.5 217.5q0 153 -40 223t-126 70q-85 0 -124 -69.5t-39 -219.5zM449 1141 l133 286h313v-26l-246 -260h-200z" />
<glyph unicode="&#xf4;" horiz-adv-x="1146" d="M96 502q0 257 122.5 392.5t354.5 135.5q236 0 358 -136t122 -400q0 -250 -125 -385.5t-355 -135.5q-232 0 -354.5 136t-122.5 393zM301 1141l123 286h301l123 -286h-182l-93 139l-90 -139h-182zM410 506q0 -151 39.5 -221t125.5 -70q85 0 124.5 69.5t39.5 217.5 q0 153 -40 223t-126 70q-85 0 -124 -69.5t-39 -219.5z" />
<glyph unicode="&#xf5;" horiz-adv-x="1146" d="M96 502q0 257 122.5 392.5t354.5 135.5q236 0 358 -136t122 -400q0 -250 -125 -385.5t-355 -135.5q-232 0 -354.5 136t-122.5 393zM315 1141v33q0 215 152 215q46 0 141 -46q31 -14 47 -14q54 0 60 84h119v-35q0 -231 -156 -231q-30 0 -51 7t-95 42q-24 12 -45 12 q-22 0 -37 -18.5t-16 -48.5h-119zM410 506q0 -151 39.5 -221t125.5 -70q85 0 124.5 69.5t39.5 217.5q0 153 -40 223t-126 70q-85 0 -124 -69.5t-39 -219.5z" />
<glyph unicode="&#xf6;" horiz-adv-x="1146" d="M96 502q0 257 122.5 392.5t354.5 135.5q236 0 358 -136t122 -400q0 -250 -125 -385.5t-355 -135.5q-232 0 -354.5 136t-122.5 393zM311 1272q0 147 115 147q111 0 111 -149q0 -69 -29 -106.5t-84 -37.5t-84 37.5t-29 108.5zM410 506q0 -151 39.5 -221t125.5 -70 q85 0 124.5 69.5t39.5 217.5q0 153 -40 223t-126 70q-85 0 -124 -69.5t-39 -219.5zM612 1272q0 147 115 147q111 0 111 -149q0 -69 -29 -106.5t-84 -37.5t-84 37.5t-29 108.5z" />
<glyph unicode="&#xf7;" d="M55 549v219h942v-219h-942zM391 305q0 54 40 93.5t95 39.5q56 0 96 -39t40 -96t-40 -96t-96 -39q-57 0 -96 40t-39 97zM391 1016q0 54 40 93.5t95 39.5q56 0 96 -39t40 -96t-40 -96t-96 -39q-57 0 -96 40t-39 97z" />
<glyph unicode="&#xf8;" horiz-adv-x="1146" d="M76 20l112 125q-94 140 -94 359q0 255 123.5 390.5t353.5 135.5q198 0 320 -98l104 117l74 -68l-111 -125q93 -139 93 -356q0 -255 -123.5 -391t-354.5 -136q-194 0 -317 99l-104 -117zM408 504q0 -50 8 -105l284 320q-40 76 -129 76q-85 0 -124 -70t-39 -221zM446 285 q43 -70 127 -70q85 0 124.5 70t39.5 221q0 32 -6 96z" />
<glyph unicode="&#xf9;" horiz-adv-x="1126" d="M123 410v594h293v-512q0 -137 35.5 -200t111.5 -63q77 0 112.5 63.5t35.5 199.5v512h293v-594q0 -129 -35 -212t-113 -143q-59 -43 -127.5 -62.5t-165.5 -19.5t-165.5 19.5t-127.5 62.5q-78 60 -112.5 143t-34.5 212zM242 1401v26h313l133 -286h-201z" />
<glyph unicode="&#xfa;" horiz-adv-x="1126" d="M123 410v594h293v-512q0 -137 35.5 -200t111.5 -63q77 0 112.5 63.5t35.5 199.5v512h293v-594q0 -129 -35 -212t-113 -143q-59 -43 -127.5 -62.5t-165.5 -19.5t-165.5 19.5t-127.5 62.5q-78 60 -112.5 143t-34.5 212zM438 1141l133 286h314v-26l-246 -260h-201z" />
<glyph unicode="&#xfb;" horiz-adv-x="1126" d="M123 410v594h293v-512q0 -137 35.5 -200t111.5 -63q77 0 112.5 63.5t35.5 199.5v512h293v-594q0 -129 -35 -212t-113 -143q-59 -43 -127.5 -62.5t-165.5 -19.5t-165.5 19.5t-127.5 62.5q-78 60 -112.5 143t-34.5 212zM291 1141l123 286h299l123 -286h-183l-90 139 l-90 -139h-182z" />
<glyph unicode="&#xfc;" horiz-adv-x="1126" d="M123 410v594h293v-512q0 -137 35.5 -200t111.5 -63q77 0 112.5 63.5t35.5 199.5v512h293v-594q0 -129 -35 -212t-113 -143q-59 -43 -127.5 -62.5t-165.5 -19.5t-165.5 19.5t-127.5 62.5q-78 60 -112.5 143t-34.5 212zM301 1272q0 147 113 147q110 0 110 -149 q0 -69 -28 -106.5t-82 -37.5q-55 0 -84 37.5t-29 108.5zM602 1272q0 147 113 147q110 0 110 -149q0 -69 -28 -106.5t-82 -37.5q-55 0 -84 37.5t-29 108.5z" />
<glyph unicode="&#xfd;" horiz-adv-x="1060" d="M41 1004h336l166 -584l172 584h305l-442 -1276h-306l125 346zM420 1141l133 286h313v-26l-245 -260h-201z" />
<glyph unicode="&#xfe;" horiz-adv-x="1148" d="M137 -272v1638h287v-557q112 219 299 219q88 0 160.5 -54.5t109.5 -146.5q47 -120 47 -307q0 -234 -79 -375q-44 -76 -111.5 -117.5t-147.5 -41.5q-88 0 -151.5 46.5t-120.5 153.5v-458h-293zM436 510q0 -147 36.5 -218t111.5 -71q70 0 106.5 72.5t36.5 210.5 q0 155 -34.5 228t-108.5 73q-148 0 -148 -295z" />
<glyph unicode="&#xff;" horiz-adv-x="1060" d="M41 1004h336l166 -584l172 584h305l-442 -1276h-306l125 346zM281 1272q0 147 114 147q111 0 111 -149q0 -69 -29 -106.5t-84 -37.5q-112 0 -112 146zM582 1272q0 147 114 147q111 0 111 -149q0 -69 -29 -106.5t-84 -37.5q-112 0 -112 146z" />
<glyph unicode="&#x152;" horiz-adv-x="1712" d="M80 672q0 721 551 721q88 0 180 -27h813v-260h-491v-272h491v-252h-491v-316h491v-266h-813q-127 -27 -223 -27q-119 0 -216 48.5t-161 140.5q-70 96 -100.5 215t-30.5 295zM408 686q0 -124 18 -223.5t49 -143.5q53 -81 150 -81q100 0 147 87t47 273v180q0 110 -6 162.5 t-25 93.5q-21 46 -63 74.5t-94 28.5q-105 0 -166 -103q-26 -44 -41.5 -139.5t-15.5 -208.5z" />
<glyph unicode="&#x153;" horiz-adv-x="1646" d="M96 500q0 252 121.5 391t341.5 139q169 0 289 -100q115 100 293 100q126 0 222.5 -55t139.5 -150q28 -62 38.5 -127.5t10.5 -179.5q0 -47 -2 -82h-559q3 -129 37.5 -187.5t108.5 -58.5q107 0 125 136l276 -56q-17 -141 -122.5 -219t-278.5 -78q-103 0 -170.5 24.5 t-128.5 84.5q-117 -111 -285 -111q-87 0 -171.5 30.5t-139.5 82.5q-71 65 -108.5 172.5t-37.5 243.5zM410 504q0 -150 34.5 -220.5t108.5 -70.5t108.5 69.5t34.5 217.5q0 154 -34 224.5t-109 70.5q-74 0 -108.5 -70.5t-34.5 -220.5zM991 610h273q0 207 -138 207 q-132 0 -135 -207z" />
<glyph unicode="&#x178;" horiz-adv-x="1247" d="M41 1366h362l183 -403q32 -70 53 -181l229 584h338l-418 -821v-545h-321v545zM360 1620q0 147 115 147q111 0 111 -149q0 -69 -29 -106t-84 -37t-84 37t-29 108zM662 1620q0 147 114 147q111 0 111 -149q0 -69 -29 -106t-84 -37q-112 0 -112 145z" />
<glyph unicode="&#x2c6;" horiz-adv-x="1024" d="M240 1141l122 286h302l122 -286h-182l-92 139l-90 -139h-182z" />
<glyph unicode="&#x2dc;" horiz-adv-x="1024" d="M254 1141v33q0 215 152 215q46 0 141 -46q31 -14 47 -14q25 0 40.5 22t18.5 62h117q2 -14 2 -35q0 -231 -156 -231q-30 0 -51.5 7.5t-93.5 41.5q-24 12 -47 12q-22 0 -36 -18t-15 -49h-119z" />
<glyph unicode="&#x2000;" horiz-adv-x="906" />
<glyph unicode="&#x2001;" horiz-adv-x="1812" />
<glyph unicode="&#x2002;" horiz-adv-x="906" />
<glyph unicode="&#x2003;" horiz-adv-x="1812" />
<glyph unicode="&#x2004;" horiz-adv-x="604" />
<glyph unicode="&#x2005;" horiz-adv-x="453" />
<glyph unicode="&#x2006;" horiz-adv-x="302" />
<glyph unicode="&#x2007;" horiz-adv-x="302" />
<glyph unicode="&#x2008;" horiz-adv-x="226" />
<glyph unicode="&#x2009;" horiz-adv-x="362" />
<glyph unicode="&#x200a;" horiz-adv-x="100" />
<glyph unicode="&#x2010;" horiz-adv-x="763" d="M102 389v281h560v-281h-560z" />
<glyph unicode="&#x2011;" horiz-adv-x="763" d="M102 389v281h560v-281h-560z" />
<glyph unicode="&#x2012;" horiz-adv-x="763" d="M102 389v281h560v-281h-560z" />
<glyph unicode="&#x2013;" horiz-adv-x="942" d="M0 414v231h942v-231h-942z" />
<glyph unicode="&#x2014;" d="M-55 414v231h1161v-231h-1161z" />
<glyph unicode="&#x2018;" horiz-adv-x="630" d="M96 930l183 436h264l-127 -436h-320z" />
<glyph unicode="&#x2019;" horiz-adv-x="630" d="M88 930l127 436h320l-183 -436h-264z" />
<glyph unicode="&#x201a;" horiz-adv-x="630" d="M88 -178l127 436h320l-183 -436h-264z" />
<glyph unicode="&#x201c;" horiz-adv-x="1081" d="M96 930l183 436h264l-127 -436h-320zM547 930l182 436h264l-127 -436h-319z" />
<glyph unicode="&#x201d;" horiz-adv-x="1081" d="M88 930l127 436h320l-183 -436h-264zM539 930l127 436h319l-182 -436h-264z" />
<glyph unicode="&#x201e;" horiz-adv-x="1081" d="M88 -178l127 436h320l-183 -436h-264zM539 -178l127 436h319l-182 -436h-264z" />
<glyph unicode="&#x2022;" horiz-adv-x="1366" d="M401 692q0 120 83.5 202.5t203.5 82.5q115 0 198 -83.5t83 -199.5q0 -118 -83 -201t-200 -83q-118 0 -201.5 82.5t-83.5 199.5z" />
<glyph unicode="&#x2026;" horiz-adv-x="2048" d="M170 152q0 69 50.5 119.5t119.5 50.5q72 0 122 -49.5t50 -120.5q0 -72 -50 -122t-122 -50q-70 0 -120 50.5t-50 121.5zM852 152q0 69 50.5 119.5t119.5 50.5q72 0 122 -49.5t50 -120.5q0 -72 -50 -122t-122 -50q-70 0 -120 50.5t-50 121.5zM1536 152q0 69 50.5 119.5 t119.5 50.5q72 0 122 -49.5t50 -120.5q0 -72 -50 -122t-122 -50q-70 0 -120 50.5t-50 121.5z" />
<glyph unicode="&#x202f;" horiz-adv-x="362" />
<glyph unicode="&#x2039;" horiz-adv-x="563" d="M102 520l101 293h278l-106 -293l106 -295h-278z" />
<glyph unicode="&#x203a;" horiz-adv-x="563" d="M82 225l106 295l-106 293h278l101 -293l-101 -295h-278z" />
<glyph unicode="&#x205f;" horiz-adv-x="453" />
<glyph unicode="&#x20ac;" horiz-adv-x="1351" d="M88 549l88 262h92q12 112 26.5 177.5t39.5 125.5q126 279 454 279q209 0 324 -103t152 -323l-310 -68q-14 131 -51 186.5t-110 55.5q-171 0 -189 -330h299l-88 -262h-213q14 -157 59 -233t127 -76q72 0 110.5 62.5t55.5 205.5l310 -105q-40 -211 -166.5 -320.5 t-329.5 -109.5q-227 0 -354.5 146.5t-147.5 429.5h-178z" />
<glyph unicode="&#x2122;" horiz-adv-x="1687" d="M33 1200v166h663v-166h-223v-653h-217v653h-223zM807 547v819h246l153 -467l156 467h248v-819h-195l8 536l-133 -419h-168l-133 426l8 -543h-190z" />
<glyph unicode="&#x25fc;" horiz-adv-x="1003" d="M0 0v1004h1004v-1004h-1004z" />
</font>
</defs>
</svg>
